<svg width="33" height="32" viewBox="0 0 33 32" fill="none" xmlns="http://www.w3.org/2000/svg">
<g id="shopping_cart" clip-path="url(#clip0_6_1252)">
<path id="Vector" d="M9.83325 24C8.36658 24 7.17992 25.2 7.17992 26.6667C7.17992 28.1333 8.36658 29.3333 9.83325 29.3333C11.2999 29.3333 12.4999 28.1333 12.4999 26.6667C12.4999 25.2 11.2999 24 9.83325 24ZM1.83325 4C1.83325 4.73333 2.43325 5.33333 3.16659 5.33333H4.49992L9.29992 15.4533L7.49992 18.7067C6.52659 20.4933 7.80658 22.6667 9.83325 22.6667H24.4999C25.2332 22.6667 25.8333 22.0667 25.8333 21.3333C25.8333 20.6 25.2332 20 24.4999 20H9.83325L11.2999 17.3333H21.2333C22.2333 17.3333 23.1132 16.7867 23.5666 15.96L28.3399 7.30666C28.8333 6.42666 28.1933 5.33333 27.1799 5.33333H7.44659L6.55325 3.42666C6.33992 2.96 5.85992 2.66666 5.35325 2.66666H3.16659C2.43325 2.66666 1.83325 3.26666 1.83325 4ZM23.1666 24C21.6999 24 20.5133 25.2 20.5133 26.6667C20.5133 28.1333 21.6999 29.3333 23.1666 29.3333C24.6333 29.3333 25.8333 28.1333 25.8333 26.6667C25.8333 25.2 24.6333 24 23.1666 24Z" fill="#1E1E1E"/>
</g>
<defs>
<clipPath id="clip0_6_1252">
<rect width="32" height="32" fill="white" transform="translate(0.5)"/>
</clipPath>
</defs>
</svg>
